<?xml version="1.0" encoding="UTF-8" standalone="no"?>
<!-- Created with Inkscape (http://www.inkscape.org/) -->

<svg
   xmlns:dc="http://purl.org/dc/elements/1.1/"
   xmlns:cc="http://creativecommons.org/ns#"
   xmlns:rdf="http://www.w3.org/1999/02/22-rdf-syntax-ns#"
   xmlns:svg="http://www.w3.org/2000/svg"
   xmlns="http://www.w3.org/2000/svg"
   xmlns:sodipodi="http://sodipodi.sourceforge.net/DTD/sodipodi-0.dtd"
   xmlns:inkscape="http://www.inkscape.org/namespaces/inkscape"
   width="1948.8188"
   height="956.69287"
   id="svg2"
   version="1.1"
   inkscape:version="0.48.4 r9939"
   sodipodi:docname="Horizontale Einschübe.svg">
  <defs
     id="defs4">
    <inkscape:path-effect
       effect="ruler"
       id="path-effect3137"
       is_visible="true"
       unit="px"
       mark_distance="20"
       mark_length="14"
       minor_mark_length="7"
       major_mark_steps="5"
       shift="0"
       offset="0"
       mark_dir="left"
       border_marks="both" />
    <inkscape:path-effect
       effect="sketch"
       id="path-effect3135"
       is_visible="true"
       nbiter_approxstrokes="5"
       strokelength="100"
       strokelength_rdm="0.3;1"
       strokeoverlap="0.3"
       strokeoverlap_rdm="0.3;1"
       ends_tolerance="0.1;1"
       parallel_offset="5;1"
       tremble_size="5;1"
       tremble_frequency="1"
       nbtangents="5"
       tgt_places_rdmness="1;1"
       tgtscale="10"
       tgtlength="100"
       tgtlength_rdm="0.3;1" />
    <symbol
       id="*Paper_Space0" />
    <symbol
       id="*Paper_Space" />
    <symbol
       id="*Model_Space" />
    <pattern
       id="Hatch"
       x="0"
       y="0"
       patternUnits="userSpaceOnUse"
       width="8"
       height="8">
      <path
         id="path2995"
         d="M8 4 l-4,4"
         stroke-width="0.25"
         stroke="#000000"
         linecap="square" />
      <path
         id="path2997"
         d="M6 2 l-4,4"
         stroke-width="0.25"
         stroke="#000000"
         linecap="square" />
      <path
         id="path2999"
         d="M4 0 l-4,4"
         stroke-width="0.25"
         stroke="#000000"
         linecap="square" />
    </pattern>
    <marker
       orient="auto"
       id="DistanceX"
       style="overflow:visible"
       refX="0"
       refY="0">
      <path
         id="path2992"
         d="M 3,-3 -3,3 M 0,-5 0,5"
         style="stroke:#000000;stroke-width:0.5"
         inkscape:connector-curvature="0" />
    </marker>
    <symbol
       id="*Paper_Space0-9" />
    <symbol
       id="*Paper_Space-0" />
    <symbol
       id="*Model_Space-4" />
    <pattern
       id="Hatch-7"
       x="0"
       y="0"
       patternUnits="userSpaceOnUse"
       width="8"
       height="8">
      <path
         id="path3036"
         d="M8 4 l-4,4"
         stroke-width="0.25"
         stroke="#000000"
         linecap="square" />
      <path
         id="path3038"
         d="M6 2 l-4,4"
         stroke-width="0.25"
         stroke="#000000"
         linecap="square" />
      <path
         id="path3040"
         d="M4 0 l-4,4"
         stroke-width="0.25"
         stroke="#000000"
         linecap="square" />
    </pattern>
    <marker
       orient="auto"
       id="DistanceX-1"
       style="overflow:visible"
       refX="0"
       refY="0">
      <path
         id="path3033"
         d="M 3,-3 -3,3 M 0,-5 0,5"
         style="stroke:#000000;stroke-width:0.5"
         inkscape:connector-curvature="0" />
    </marker>
    <symbol
       id="*Paper_Space0-4" />
    <symbol
       id="*Paper_Space-2" />
    <symbol
       id="*Model_Space-8" />
    <pattern
       id="Hatch-8"
       x="0"
       y="0"
       patternUnits="userSpaceOnUse"
       width="8"
       height="8">
      <path
         id="path3071"
         d="M8 4 l-4,4"
         stroke-width="0.25"
         stroke="#000000"
         linecap="square" />
      <path
         id="path3073"
         d="M6 2 l-4,4"
         stroke-width="0.25"
         stroke="#000000"
         linecap="square" />
      <path
         id="path3075"
         d="M4 0 l-4,4"
         stroke-width="0.25"
         stroke="#000000"
         linecap="square" />
    </pattern>
    <marker
       orient="auto"
       id="DistanceX-4"
       style="overflow:visible"
       refX="0"
       refY="0">
      <path
         id="path3068"
         d="M 3,-3 -3,3 M 0,-5 0,5"
         style="stroke:#000000;stroke-width:0.5"
         inkscape:connector-curvature="0" />
    </marker>
    <symbol
       id="*Paper_Space0-1" />
    <symbol
       id="*Paper_Space-7" />
    <symbol
       id="*Model_Space-1" />
    <pattern
       id="Hatch-5"
       x="0"
       y="0"
       patternUnits="userSpaceOnUse"
       width="8"
       height="8">
      <path
         id="path3106"
         d="M8 4 l-4,4"
         stroke-width="0.25"
         stroke="#000000"
         linecap="square" />
      <path
         id="path3108"
         d="M6 2 l-4,4"
         stroke-width="0.25"
         stroke="#000000"
         linecap="square" />
      <path
         id="path3110"
         d="M4 0 l-4,4"
         stroke-width="0.25"
         stroke="#000000"
         linecap="square" />
    </pattern>
    <marker
       orient="auto"
       id="DistanceX-5"
       style="overflow:visible"
       refX="0"
       refY="0">
      <path
         id="path3103"
         d="M 3,-3 -3,3 M 0,-5 0,5"
         style="stroke:#000000;stroke-width:0.5"
         inkscape:connector-curvature="0" />
    </marker>
  </defs>
  <sodipodi:namedview
     id="base"
     pagecolor="#ffffff"
     bordercolor="#666666"
     borderopacity="1.0"
     inkscape:pageopacity="0.0"
     inkscape:pageshadow="2"
     inkscape:zoom="0.35355339"
     inkscape:cx="755.50113"
     inkscape:cy="523.35527"
     inkscape:document-units="px"
     inkscape:current-layer="layer1"
     showgrid="false"
     units="mm"
     inkscape:window-width="1795"
     inkscape:window-height="1178"
     inkscape:window-x="2037"
     inkscape:window-y="-8"
     inkscape:window-maximized="1" />
  <metadata
     id="metadata7">
    <rdf:RDF>
      <cc:Work
         rdf:about="">
        <dc:format>image/svg+xml</dc:format>
        <dc:type
           rdf:resource="http://purl.org/dc/dcmitype/StillImage" />
        <dc:title></dc:title>
      </cc:Work>
    </rdf:RDF>
  </metadata>
  <g
     inkscape:label="Ebene 1"
     inkscape:groupmode="layer"
     id="layer1"
     transform="translate(0,-95.669295)">
    <g
       id="g3045"
       inkscape:label="0" />
    <g
       id="g3080"
       inkscape:label="0" />
    <g
       id="g3115"
       inkscape:label="0" />
    <path
       style="fill:none;stroke:#000000;stroke-width:1px;stroke-linecap:butt;stroke-linejoin:miter;stroke-opacity:1"
       d="m 43.433071,890.34642 237.401579,0 0,44.29134 7.08661,0 0,-44.29134 111.01181,0 0,44.29134 7.08662,0 0,-44.29134 111.01181,0 0,44.29134 7.08661,0 0,-44.29134 111.01181,0 0,44.29134 7.08662,0 0,-44.29134 111.01181,0 0,44.29134 7.08661,0 0,-44.29134 111.01181,0 0,44.29134 7.08662,0 0,-44.29134 111.01181,0 0,44.29134 7.08661,0 0,-44.29134 111.01179,0 0,44.29134 7.0866,0 0,-44.29134 111.0118,0 0,44.29134 7.0867,0 0,-44.29134 111.0118,0 0,44.29134 7.0866,0 0,-44.29134 111.0118,0 0,44.29134 7.0866,0 0,-44.29134 111.0118,0 0,44.29134 7.0866,0 0,-44.29134 238.7126,0 0,88.58268 -1782.283429,0 z"
       id="path3131"
       inkscape:connector-curvature="0"
       sodipodi:nodetypes="ccccccccccccccccccccccccccccccccccccccccccccccccccccc" />
    <path
       style="fill:none;stroke:#000000;stroke-width:1px;stroke-linecap:butt;stroke-linejoin:miter;stroke-opacity:1"
       d="m 42.858297,782.07083 237.401583,0 0,44.29133 7.08661,0 0,-44.29133 111.01181,0 0,44.29133 7.08662,0 0,-44.29133 111.01181,0 0,44.29133 7.08661,0 0,-44.29133 111.01181,0 0,44.29133 7.08662,0 0,-44.29133 111.01181,0 0,44.29133 7.08661,0 0,-44.29133 111.01181,0 0,44.29133 7.08662,0 0,-44.29133 111.01181,0 0,44.29133 7.08661,0 0,-44.29133 111.01176,0 0,44.29133 7.0866,0 0,-44.29133 111.0118,0 0,44.29133 7.0867,0 0,-44.29133 111.0118,0 0,44.29133 7.0866,0 0,-44.29133 111.0118,0 0,44.29133 7.0866,0 0,-44.29133 111.0118,0 0,44.29133 7.0866,0 0,-44.29133 238.7126,0 0,88.58267 -1782.283403,0 z"
       id="path3131-5"
       inkscape:connector-curvature="0"
       sodipodi:nodetypes="ccccccccccccccccccccccccccccccccccccccccccccccccccccc" />
    <path
       style="fill:none;stroke:#000000;stroke-width:1px;stroke-linecap:butt;stroke-linejoin:miter;stroke-opacity:1"
       d="m 42.858291,682.07083 237.401579,0 0,44.29133 7.08661,0 0,-44.29133 111.01181,0 0,44.29133 7.08662,0 0,-44.29133 111.01181,0 0,44.29133 7.08661,0 0,-44.29133 111.01181,0 0,44.29133 7.08662,0 0,-44.29133 111.01181,0 0,44.29133 7.08661,0 0,-44.29133 111.01182,0 0,44.29133 7.0866,0 0,-44.29133 111.0118,0 0,44.29133 7.0866,0 0,-44.29133 111.0118,0 0,44.29133 7.0866,0 0,-44.29133 111.0118,0 0,44.29133 7.0867,0 0,-44.29133 111.0118,0 0,44.29133 7.0866,0 0,-44.29133 111.0118,0 0,44.29133 7.0866,0 0,-44.29133 111.0118,0 0,44.29133 7.0866,0 0,-44.29133 238.7126,0 0,88.58267 -1782.283409,0 z"
       id="path3131-2"
       inkscape:connector-curvature="0"
       sodipodi:nodetypes="ccccccccccccccccccccccccccccccccccccccccccccccccccccc" />
    <path
       style="fill:none;stroke:#000000;stroke-width:1px;stroke-linecap:butt;stroke-linejoin:miter;stroke-opacity:1"
       d="m 42.858296,582.07083 237.401584,0 0,44.29134 7.08661,0 0,-44.29134 111.01181,0 0,44.29134 7.08662,0 0,-44.29134 111.01181,0 0,44.29134 7.08661,0 0,-44.29134 111.01181,0 0,44.29134 7.08662,0 0,-44.29134 111.01181,0 0,44.29134 7.08661,0 0,-44.29134 111.01181,0 0,44.29134 7.08662,0 0,-44.29134 111.01181,0 0,44.29134 7.08661,0 0,-44.29134 111.01176,0 0,44.29134 7.0866,0 0,-44.29134 111.0118,0 0,44.29134 7.0867,0 0,-44.29134 111.0118,0 0,44.29134 7.0866,0 0,-44.29134 111.0118,0 0,44.29134 7.0866,0 0,-44.29134 111.0118,0 0,44.29134 7.0866,0 0,-44.29134 238.7126,0 0,88.58268 -1782.283404,0 z"
       id="path3131-7"
       inkscape:connector-curvature="0"
       sodipodi:nodetypes="ccccccccccccccccccccccccccccccccccccccccccccccccccccc" />
    <path
       style="fill:none;stroke:#000000;stroke-width:1px;stroke-linecap:butt;stroke-linejoin:miter;stroke-opacity:1"
       d="m 42.858296,480.07083 237.401584,0 0,44.29134 7.08661,0 0,-44.29134 111.01181,0 0,44.29134 7.08662,0 0,-44.29134 111.01181,0 0,44.29134 7.08661,0 0,-44.29134 111.01181,0 0,44.29134 7.08662,0 0,-44.29134 111.01181,0 0,44.29134 7.08661,0 0,-44.29134 111.01181,0 0,44.29134 7.08662,0 0,-44.29134 111.01181,0 0,44.29134 7.08661,0 0,-44.29134 111.01176,0 0,44.29134 7.0866,0 0,-44.29134 111.0118,0 0,44.29134 7.0867,0 0,-44.29134 111.0118,0 0,44.29134 7.0866,0 0,-44.29134 111.0118,0 0,44.29134 7.0866,0 0,-44.29134 111.0118,0 0,44.29134 7.0866,0 0,-44.29134 238.7126,0 0,88.58268 -1782.283404,0 z"
       id="path3131-6"
       inkscape:connector-curvature="0"
       sodipodi:nodetypes="ccccccccccccccccccccccccccccccccccccccccccccccccccccc" />
    <path
       style="fill:none;stroke:#000000;stroke-width:1px;stroke-linecap:butt;stroke-linejoin:miter;stroke-opacity:1"
       d="m 42.858296,374.07083 237.401584,0 0,44.29134 7.08661,0 0,-44.29134 111.01181,0 0,44.29134 7.08662,0 0,-44.29134 111.01181,0 0,44.29134 7.08661,0 0,-44.29134 111.01181,0 0,44.29134 7.08662,0 0,-44.29134 111.01181,0 0,44.29134 7.08661,0 0,-44.29134 111.01181,0 0,44.29134 7.08662,0 0,-44.29134 111.01181,0 0,44.29134 7.08657,0 0,-44.29134 111.0118,0 0,44.29134 7.0866,0 0,-44.29134 111.0118,0 0,44.29134 7.0867,0 0,-44.29134 111.0118,0 0,44.29134 7.0866,0 0,-44.29134 111.0118,0 0,44.29134 7.0866,0 0,-44.29134 111.0118,0 0,44.29134 7.0866,0 0,-44.29134 238.7126,0 0,88.58268 -1782.283404,0 z"
       id="path3131-1"
       inkscape:connector-curvature="0"
       sodipodi:nodetypes="ccccccccccccccccccccccccccccccccccccccccccccccccccccc" />
    <path
       style="fill:none;stroke:#000000;stroke-width:1px;stroke-linecap:butt;stroke-linejoin:miter;stroke-opacity:1"
       d="m 42.858295,272.07083 237.401585,0 0,44.29134 7.08661,0 0,-44.29134 111.01181,0 0,44.29134 7.08662,0 0,-44.29134 111.01181,0 0,44.29134 7.08661,0 0,-44.29134 111.01181,0 0,44.29134 7.08662,0 0,-44.29134 111.01181,0 0,44.29134 7.08661,0 0,-44.29134 111.01181,0 0,44.29134 7.08662,0 0,-44.29134 111.01178,0 0,44.29134 7.0866,0 0,-44.29134 111.0118,0 0,44.29134 7.0866,0 0,-44.29134 111.0118,0 0,44.29134 7.0867,0 0,-44.29134 111.0118,0 0,44.29134 7.0866,0 0,-44.29134 111.0118,0 0,44.29134 7.0866,0 0,-44.29134 111.0118,0 0,44.29134 7.0866,0 0,-44.29134 238.7126,0 0,88.58268 -1782.283405,0 z"
       id="path3131-4"
       inkscape:connector-curvature="0"
       sodipodi:nodetypes="ccccccccccccccccccccccccccccccccccccccccccccccccccccc" />
    <path
       style="fill:none;stroke:#000000;stroke-width:1px;stroke-linecap:butt;stroke-linejoin:miter;stroke-opacity:1"
       d="m 42.858295,168.07083 237.401585,0 0,44.29134 7.08661,0 0,-44.29134 111.01181,0 0,44.29134 7.08662,0 0,-44.29134 111.01181,0 0,44.29134 7.08661,0 0,-44.29134 111.01181,0 0,44.29134 7.08662,0 0,-44.29134 111.01181,0 0,44.29134 7.08661,0 0,-44.29134 111.01181,0 0,44.29134 7.08662,0 0,-44.29134 111.01178,0 0,44.29134 7.0866,0 0,-44.29134 111.0118,0 0,44.29134 7.0866,0 0,-44.29134 111.0118,0 0,44.29134 7.0867,0 0,-44.29134 111.0118,0 0,44.29134 7.0866,0 0,-44.29134 111.0118,0 0,44.29134 7.0866,0 0,-44.29134 111.0118,0 0,44.29134 7.0866,0 0,-44.29134 238.7126,0 0,88.58268 -1782.283405,0 z"
       id="path3131-23"
       inkscape:connector-curvature="0"
       sodipodi:nodetypes="ccccccccccccccccccccccccccccccccccccccccccccccccccccc" />
    <text
       xml:space="preserve"
       style="font-size:14px;font-style:normal;font-variant:normal;font-weight:normal;font-stretch:normal;line-height:125%;letter-spacing:0px;word-spacing:0px;fill:#000000;fill-opacity:1;stroke:none;font-family:Arial;-inkscape-font-specification:Arial"
       x="1844.201"
       y="218.73654"
       id="text3243"
       sodipodi:linespacing="125%"><tspan
         sodipodi:role="line"
         id="tspan3245"
         x="1844.201"
         y="218.73654"
         style="font-size:24px">1</tspan></text>
    <text
       xml:space="preserve"
       style="font-size:14px;font-style:normal;font-variant:normal;font-weight:normal;font-stretch:normal;line-height:125%;letter-spacing:0px;word-spacing:0px;fill:#000000;fill-opacity:1;stroke:none;font-family:Arial;-inkscape-font-specification:Arial"
       x="1851.7921"
       y="317.11084"
       id="text3243-2"
       sodipodi:linespacing="125%"><tspan
         sodipodi:role="line"
         id="tspan3245-2"
         x="1851.7921"
         y="317.11084"
         style="font-size:24px">2</tspan></text>
    <text
       xml:space="preserve"
       style="font-size:32px;font-style:normal;font-variant:normal;font-weight:normal;font-stretch:normal;line-height:125%;letter-spacing:0px;word-spacing:0px;fill:#000000;fill-opacity:1;stroke:none;font-family:Arial;-inkscape-font-specification:Arial"
       x="1851.9127"
       y="319.58966"
       id="text3272"
       sodipodi:linespacing="125%"
       transform="translate(0,95.669295)"><tspan
         sodipodi:role="line"
         id="tspan3274"
         x="1851.9127"
         y="319.58966">3</tspan></text>
    <text
       xml:space="preserve"
       style="font-size:32px;font-style:normal;font-variant:normal;font-weight:normal;font-stretch:normal;line-height:125%;letter-spacing:0px;word-spacing:0px;fill:#000000;fill-opacity:1;stroke:none;font-family:Arial;-inkscape-font-specification:Arial"
       x="1851.9127"
       y="424.94858"
       id="text3276"
       sodipodi:linespacing="125%"
       transform="translate(0,95.669295)"><tspan
         sodipodi:role="line"
         id="tspan3278"
         x="1851.9127"
         y="424.94858">4</tspan></text>
    <text
       xml:space="preserve"
       style="font-size:32px;font-style:normal;font-variant:normal;font-weight:normal;font-stretch:normal;line-height:125%;letter-spacing:0px;word-spacing:0px;fill:#000000;fill-opacity:1;stroke:none;font-family:Arial;-inkscape-font-specification:Arial"
       x="1857.9231"
       y="537.73212"
       id="text3280"
       sodipodi:linespacing="125%"
       transform="translate(0,95.669295)"><tspan
         sodipodi:role="line"
         id="tspan3282"
         x="1857.9231"
         y="537.73212">5</tspan></text>
    <text
       xml:space="preserve"
       style="font-size:32px;font-style:normal;font-variant:normal;font-weight:normal;font-stretch:normal;line-height:125%;letter-spacing:0px;word-spacing:0px;fill:#000000;fill-opacity:1;stroke:none;font-family:Arial;-inkscape-font-specification:Arial"
       x="1864.6406"
       y="645.91943"
       id="text3284"
       sodipodi:linespacing="125%"
       transform="translate(0,95.669295)"><tspan
         sodipodi:role="line"
         id="tspan3286"
         x="1864.6406"
         y="645.91943">6</tspan></text>
    <text
       xml:space="preserve"
       style="font-size:32px;font-style:normal;font-variant:normal;font-weight:normal;font-stretch:normal;line-height:125%;letter-spacing:0px;word-spacing:0px;fill:#000000;fill-opacity:1;stroke:none;font-family:Arial;-inkscape-font-specification:Arial"
       x="1867.469"
       y="744.56085"
       id="text3288"
       sodipodi:linespacing="125%"
       transform="translate(0,95.669295)"><tspan
         sodipodi:role="line"
         id="tspan3290"
         x="1867.469"
         y="744.56085">7</tspan></text>
    <text
       xml:space="preserve"
       style="font-size:32px;font-style:normal;font-variant:normal;font-weight:normal;font-stretch:normal;line-height:125%;letter-spacing:0px;word-spacing:0px;fill:#000000;fill-opacity:1;stroke:none;font-family:Arial;-inkscape-font-specification:Arial"
       x="1871.0045"
       y="848.15198"
       id="text3292"
       sodipodi:linespacing="125%"
       transform="translate(0,95.669295)"><tspan
         sodipodi:role="line"
         id="tspan3294"
         x="1871.0045"
         y="848.15198">8</tspan></text>
  </g>
</svg>
