<?xml version="1.0" encoding="UTF-8" standalone="no"?>
<!-- Created with Inkscape (http://www.inkscape.org/) -->

<svg
   xmlns:dc="http://purl.org/dc/elements/1.1/"
   xmlns:cc="http://creativecommons.org/ns#"
   xmlns:rdf="http://www.w3.org/1999/02/22-rdf-syntax-ns#"
   xmlns:svg="http://www.w3.org/2000/svg"
   xmlns="http://www.w3.org/2000/svg"
   xmlns:sodipodi="http://sodipodi.sourceforge.net/DTD/sodipodi-0.dtd"
   xmlns:inkscape="http://www.inkscape.org/namespaces/inkscape"
   width="1948.8188"
   height="956.69287"
   id="svg3217"
   version="1.1"
   inkscape:version="0.48.4 r9939"
   sodipodi:docname="Einschübe 2.svg">
  <defs
     id="defs3219" />
  <sodipodi:namedview
     id="base"
     pagecolor="#ffffff"
     bordercolor="#666666"
     borderopacity="1.0"
     inkscape:pageopacity="0.0"
     inkscape:pageshadow="2"
     inkscape:zoom="0.49497475"
     inkscape:cx="1292.7099"
     inkscape:cy="419.37417"
     inkscape:document-units="px"
     inkscape:current-layer="layer1"
     showgrid="false"
     units="mm"
     inkscape:window-width="1795"
     inkscape:window-height="1178"
     inkscape:window-x="2037"
     inkscape:window-y="-8"
     inkscape:window-maximized="1" />
  <metadata
     id="metadata3222">
    <rdf:RDF>
      <cc:Work
         rdf:about="">
        <dc:format>image/svg+xml</dc:format>
        <dc:type
           rdf:resource="http://purl.org/dc/dcmitype/StillImage" />
        <dc:title></dc:title>
      </cc:Work>
    </rdf:RDF>
  </metadata>
  <g
     inkscape:label="Ebene 1"
     inkscape:groupmode="layer"
     id="layer1"
     transform="translate(0,-95.657072)">
    <path
       style="fill:none;stroke:#000000;stroke-width:1px;stroke-linecap:butt;stroke-linejoin:miter;stroke-opacity:1"
       d="m 48.858297,930.91575 237.401583,0 0,44.29134 7.08661,0 0,-44.29134 111.01181,0 0,44.29134 7.08662,0 0,-44.29134 111.01181,0 0,44.29134 7.08661,0 0,-44.29134 111.01181,0 0,44.29134 7.08662,0 0,-44.29134 111.01181,0 0,44.29134 7.08661,0 0,-44.29134 111.01181,0 0,44.29134 7.08662,0 0,-44.29134 111.01181,0 0,44.29134 7.08657,0 0,-44.29134 111.0118,0 0,44.29134 7.0866,0 0,-44.29134 111.0118,0 0,44.29134 7.0867,0 0,-44.29134 111.0118,0 0,44.29134 7.0866,0 0,-44.29134 111.0118,0 0,44.29134 7.0866,0 0,-44.29134 111.0118,0 0,44.29134 7.0866,0 0,-44.29134 238.7126,0 0,88.58265 -1782.283403,0 z"
       id="path3131"
       inkscape:connector-curvature="0"
       sodipodi:nodetypes="ccccccccccccccccccccccccccccccccccccccccccccccccccccc" />
    <path
       style="fill:none;stroke:#000000;stroke-width:1px;stroke-linecap:butt;stroke-linejoin:miter;stroke-opacity:1"
       d="m 46.00116,819.48719 237.40158,0 0,44.29134 7.08661,0 0,-44.29134 111.01181,0 0,44.29134 7.08662,0 0,-44.29134 111.01182,0 0,44.29134 7.0866,0 0,-44.29134 111.0118,0 0,44.29134 7.0866,0 0,-44.29134 111.0118,0 0,44.29134 7.0866,0 0,-44.29134 111.0119,0 0,44.29134 7.0866,0 0,-44.29134 111.0118,0 0,44.29134 7.0866,0 0,-44.29134 111.0118,0 0,44.29134 7.0866,0 0,-44.29134 111.0118,0 0,44.29134 7.0867,0 0,-44.29134 111.0118,0 0,44.29134 7.0866,0 0,-44.29134 111.0118,0 0,44.29134 7.0866,0 0,-44.29134 111.0118,0 0,44.29134 7.0866,0 0,-44.29134 238.7126,0 0,88.58268 -1782.28344,0 z"
       id="path3131-1"
       inkscape:connector-curvature="0"
       sodipodi:nodetypes="ccccccccccccccccccccccccccccccccccccccccccccccccccccc" />
    <text
       xml:space="preserve"
       style="font-size:32px;font-style:normal;font-variant:normal;font-weight:normal;font-stretch:normal;line-height:125%;letter-spacing:0px;word-spacing:0px;fill:#000000;fill-opacity:1;stroke:none;font-family:Arial;-inkscape-font-specification:Sans"
       x="1862.8571"
       y="873.83575"
       id="text3314"
       sodipodi:linespacing="125%"
       transform="translate(0,95.657072)"><tspan
         sodipodi:role="line"
         id="tspan3316"
         x="1862.8571"
         y="873.83575">9</tspan></text>
    <text
       xml:space="preserve"
       style="font-size:32px;font-style:normal;font-variant:normal;font-weight:normal;font-stretch:normal;line-height:125%;letter-spacing:0px;word-spacing:0px;fill:#000000;fill-opacity:1;stroke:none;font-family:Arial;-inkscape-font-specification:Sans"
       x="1862.8571"
       y="759.54999"
       id="text3318"
       sodipodi:linespacing="125%"
       transform="translate(0,95.657072)"><tspan
         sodipodi:role="line"
         id="tspan3320"
         x="1862.8571"
         y="759.54999">10</tspan></text>
    <text
       xml:space="preserve"
       style="font-size:32px;font-style:normal;font-variant:normal;font-weight:normal;font-stretch:normal;line-height:125%;letter-spacing:0px;word-spacing:0px;fill:#000000;fill-opacity:1;stroke:none;font-family:Arial;-inkscape-font-specification:Sans"
       x="1862.8571"
       y="763.77856"
       id="text3322"
       sodipodi:linespacing="125%"><tspan
         sodipodi:role="line"
         id="tspan3324"
         x="1862.8571"
         y="763.77856">11</tspan></text>
    <path
       style="fill:none;stroke:#000000;stroke-width:1px;stroke-linecap:butt;stroke-linejoin:miter;stroke-opacity:1"
       d="m 43.144019,702.34432 237.401611,0 0,44.29133 7.0866,0 0,-44.29133 111.0118,0 0,44.29133 7.0866,0 0,-44.29133 111.0118,0 0,44.29133 7.0866,0 0,-44.29133 111.0118,0 0,44.29133 7.0866,0 0,-44.29133 111.0118,0 0,44.29133 7.0866,0 0,-44.29133 111.0119,0 0,44.29133 7.0866,0 0,-44.29133 111.0118,0 0,44.29133 7.0866,0 0,-44.29133 111.01177,0 0,44.29133 7.0866,0 0,-44.29133 111.0118,0 0,44.29133 7.0867,0 0,-44.29133 111.0118,0 0,44.29133 7.0866,0 0,-44.29133 111.0118,0 0,44.29133 7.0866,0 0,-44.29133 111.0118,0 0,44.29133 7.0866,0 0,-44.29133 238.7126,0 0,88.58267 -1782.283381,0 z"
       id="path3131-1-6"
       inkscape:connector-curvature="0"
       sodipodi:nodetypes="ccccccccccccccccccccccccccccccccccccccccccccccccccccc" />
    <path
       style="fill:none;stroke:#000000;stroke-width:1px;stroke-linecap:butt;stroke-linejoin:miter;stroke-opacity:1"
       d="m 39.473681,595.29442 232.086619,0 0,44.29134 7.08661,0 0,-44.29134 124.01575,0 0,44.29134 7.08661,0 0,-44.29115 124.01575,-3.9e-4 0,44.29154 7.08661,0 0,-44.29134 124.01575,0 0,44.29134 7.08662,0 0,-44.29134 124.01574,0 0,44.29134 7.08662,0 0,-44.29134 124.01575,0 0,44.29134 7.08661,0 0,-44.29134 124.01578,0 0,44.29134 7.0866,0 0,-44.29134 124.0157,0 0,44.29134 7.0866,0 0,-44.29134 124.0158,0 0,44.29134 7.0866,0 0,-44.29134 c 0,0 -15.5533,0 124.0157,0 l 0,44.29134 7.0867,0 0,-44.29134 124.0157,0 0,44.29134 7.0866,0 0,-44.29134 232.0866,0 0,88.58267 -1782.283419,0 z"
       id="path3131-1-6-8"
       inkscape:connector-curvature="0"
       sodipodi:nodetypes="ccccccccccccccccccccccccccccccccccccccccccccccccc" />
    <text
       xml:space="preserve"
       style="font-size:28px;font-style:normal;font-variant:normal;font-weight:normal;font-stretch:normal;line-height:125%;letter-spacing:0px;word-spacing:0px;fill:#000000;fill-opacity:1;stroke:none;font-family:Arial;-inkscape-font-specification:Sans"
       x="1855"
       y="545.97858"
       id="text3362"
       sodipodi:linespacing="125%"
       transform="translate(0,95.657072)"><tspan
         sodipodi:role="line"
         id="tspan3364"
         x="1855"
         y="545.97858">V1</tspan></text>
    <path
       style="fill:none;stroke:#000000;stroke-width:1px;stroke-linecap:butt;stroke-linejoin:miter;stroke-opacity:1"
       d="m 38.198643,484.79969 232.086617,0 0,44.29134 7.08661,0 0,-44.29134 124.01575,0 0,44.29134 7.08661,0 0,-44.29115 124.01575,-3.9e-4 0,44.29154 7.08661,0 0,-44.29134 124.01575,0 0,44.29134 7.08662,0 0,-44.29134 124.01577,0 0,44.29134 7.0866,0 0,-44.29134 124.0157,0 0,44.29134 7.0866,0 0,-44.29134 124.01577,0 0,44.29134 7.0866,0 0,-44.29134 124.0157,0 0,44.29134 7.0866,0 0,-44.29134 124.0158,0 0,44.29134 7.0866,0 0,-44.29134 c 0,0 -15.5533,0 124.0157,0 l 0,44.29134 7.0867,0 0,-44.29134 124.0157,0 0,44.29134 7.0866,0 0,-44.29134 232.0866,0 0,88.58267 -1782.283357,0 z"
       id="path3131-1-6-8-5"
       inkscape:connector-curvature="0"
       sodipodi:nodetypes="ccccccccccccccccccccccccccccccccccccccccccccccccc" />
    <path
       style="fill:none;stroke:#000000;stroke-width:1px;stroke-linecap:butt;stroke-linejoin:miter;stroke-opacity:1"
       d="m 42.239247,385.80474 232.086623,0 0,44.29134 7.08661,0 0,-44.29134 124.01575,0 0,44.29134 7.08661,0 0,-44.29115 124.01575,-3.9e-4 0,44.29154 7.08661,0 0,-44.29134 124.01575,0 0,44.29134 7.08662,0 0,-44.29134 124.01577,0 0,44.29134 7.0866,0 0,-44.29134 124.0157,0 0,44.29134 7.0866,0 0,-44.29134 124.01576,0 0,44.29134 7.0866,0 0,-44.29134 124.0157,0 0,44.29134 7.0866,0 0,-44.29134 124.0158,0 0,44.29134 7.0866,0 0,-44.29134 c 0,0 -15.5533,0 124.0157,0 l 0,44.29134 7.0867,0 0,-44.29134 124.0157,0 0,44.29134 7.0866,0 0,-44.29134 232.0867,0 0,88.58267 -1782.283453,0 z"
       id="path3131-1-6-8-5-7"
       inkscape:connector-curvature="0"
       sodipodi:nodetypes="ccccccccccccccccccccccccccccccccccccccccccccccccc" />
    <path
       style="fill:none;stroke:#000000;stroke-width:1px;stroke-linecap:butt;stroke-linejoin:miter;stroke-opacity:1"
       d="m 40.218942,282.76918 232.086618,0 0,44.29134 7.08661,0 0,-44.29134 124.01575,0 0,44.29134 7.08661,0 0,-44.29115 124.01575,-3.9e-4 0,44.29154 7.08661,0 0,-44.29134 124.01575,0 0,44.29134 7.08662,0 0,-44.29134 124.01577,0 0,44.29134 7.0866,0 0,-44.29134 124.0157,0 0,44.29134 7.0866,0 0,-44.29134 124.01577,0 0,44.29134 7.0866,0 0,-44.29134 124.0157,0 0,44.29134 7.0866,0 0,-44.29134 124.0158,0 0,44.29134 7.0866,0 0,-44.29134 c 0,0 -15.5533,0 124.0157,0 l 0,44.29134 7.0867,0 0,-44.29134 124.0157,0 0,44.29134 7.0866,0 0,-44.29134 232.0866,0 0,88.58267 -1782.283358,0 z"
       id="path3131-1-6-8-5-6"
       inkscape:connector-curvature="0"
       sodipodi:nodetypes="ccccccccccccccccccccccccccccccccccccccccccccccccc" />
    <path
       style="fill:none;stroke:#000000;stroke-width:1px;stroke-linecap:butt;stroke-linejoin:miter;stroke-opacity:1"
       d="m 38.198641,179.73362 232.086629,0 0,44.29134 7.08661,0 0,-44.29134 124.01575,0 0,44.29134 7.08661,0 0,-44.29115 124.01575,-3.9e-4 0,44.29154 7.08661,0 0,-44.29134 124.01575,0 0,44.29134 7.08662,0 0,-44.29134 124.01577,0 0,44.29134 7.0866,0 0,-44.29134 124.0157,0 0,44.29134 7.0866,0 0,-44.29134 124.01576,0 0,44.29134 7.0866,0 0,-44.29134 124.0157,0 0,44.29134 7.0866,0 0,-44.29134 124.0158,0 0,44.29134 7.0866,0 0,-44.29134 c 0,0 -15.5533,0 124.0157,0 l 0,44.29134 7.0867,0 0,-44.29134 124.0157,0 0,44.29134 7.0866,0 0,-44.29134 232.0866,0 0,88.58267 -1782.283359,0 z"
       id="path3131-1-6-8-5-1"
       inkscape:connector-curvature="0"
       sodipodi:nodetypes="ccccccccccccccccccccccccccccccccccccccccccccccccc" />
    <text
       xml:space="preserve"
       style="font-size:28px;font-style:normal;font-variant:normal;font-weight:normal;font-stretch:normal;line-height:125%;letter-spacing:0px;word-spacing:0px;fill:#000000;fill-opacity:1;stroke:none;font-family:Arial;-inkscape-font-specification:Sans"
       x="1856.6604"
       y="443.53537"
       id="text3416"
       sodipodi:linespacing="125%"
       transform="translate(0,95.657072)"><tspan
         sodipodi:role="line"
         id="tspan3418"
         x="1856.6604"
         y="443.53537">V2</tspan><tspan
         sodipodi:role="line"
         x="1856.6604"
         y="478.53537"
         id="tspan3420" /></text>
    <text
       xml:space="preserve"
       style="font-size:28px;font-style:normal;font-variant:normal;font-weight:normal;font-stretch:normal;line-height:125%;letter-spacing:0px;word-spacing:0px;fill:#000000;fill-opacity:1;stroke:none;font-family:Arial;-inkscape-font-specification:Sans"
       x="1860.701"
       y="350.60135"
       id="text3422"
       sodipodi:linespacing="125%"
       transform="translate(0,95.657072)"><tspan
         sodipodi:role="line"
         id="tspan3424"
         x="1860.701"
         y="350.60135">V3</tspan></text>
    <text
       xml:space="preserve"
       style="font-size:28px;font-style:normal;font-variant:normal;font-weight:normal;font-stretch:normal;line-height:125%;letter-spacing:0px;word-spacing:0px;fill:#000000;fill-opacity:1;stroke:none;font-family:Arial;-inkscape-font-specification:Sans"
       x="1860.701"
       y="247.56578"
       id="text3426"
       sodipodi:linespacing="125%"
       transform="translate(0,95.657072)"><tspan
         sodipodi:role="line"
         id="tspan3428"
         x="1860.701"
         y="247.56578">V4</tspan></text>
    <text
       xml:space="preserve"
       style="font-size:28px;font-style:normal;font-variant:normal;font-weight:normal;font-stretch:normal;line-height:125%;letter-spacing:0px;word-spacing:0px;fill:#000000;fill-opacity:1;stroke:none;font-family:Arial;-inkscape-font-specification:Sans"
       x="1850.5995"
       y="142.50992"
       id="text3430"
       sodipodi:linespacing="125%"
       transform="translate(0,95.657072)"><tspan
         sodipodi:role="line"
         id="tspan3432"
         x="1850.5995"
         y="142.50992">V5</tspan></text>
  </g>
</svg>
