<?xml version="1.0" encoding="UTF-8" standalone="no"?>
<!-- Created with Inkscape (http://www.inkscape.org/) -->

<svg
   xmlns:dc="http://purl.org/dc/elements/1.1/"
   xmlns:cc="http://creativecommons.org/ns#"
   xmlns:rdf="http://www.w3.org/1999/02/22-rdf-syntax-ns#"
   xmlns:svg="http://www.w3.org/2000/svg"
   xmlns="http://www.w3.org/2000/svg"
   xmlns:sodipodi="http://sodipodi.sourceforge.net/DTD/sodipodi-0.dtd"
   xmlns:inkscape="http://www.inkscape.org/namespaces/inkscape"
   width="1948.8188"
   height="956.69287"
   id="svg3445"
   version="1.1"
   inkscape:version="0.48.4 r9939"
   sodipodi:docname="Neues Dokument 13">
  <defs
     id="defs3447" />
  <sodipodi:namedview
     id="base"
     pagecolor="#ffffff"
     bordercolor="#666666"
     borderopacity="1.0"
     inkscape:pageopacity="0.0"
     inkscape:pageshadow="2"
     inkscape:zoom="0.35"
     inkscape:cx="350"
     inkscape:cy="520"
     inkscape:document-units="px"
     inkscape:current-layer="layer1"
     showgrid="false"
     units="mm"
     inkscape:window-width="1795"
     inkscape:window-height="1178"
     inkscape:window-x="2037"
     inkscape:window-y="-8"
     inkscape:window-maximized="1" />
  <metadata
     id="metadata3450">
    <rdf:RDF>
      <cc:Work
         rdf:about="">
        <dc:format>image/svg+xml</dc:format>
        <dc:type
           rdf:resource="http://purl.org/dc/dcmitype/StillImage" />
        <dc:title></dc:title>
      </cc:Work>
    </rdf:RDF>
  </metadata>
  <g
     inkscape:label="Ebene 1"
     inkscape:groupmode="layer"
     id="layer1"
     transform="translate(0,-95.669295)">
    <path
       style="fill:none;stroke:#000000;stroke-width:1px;stroke-linecap:butt;stroke-linejoin:miter;stroke-opacity:1"
       d="m 43.144019,928.07093 232.086631,0 0,44.29134 7.08661,0 0,-44.29134 124.01575,0 0,44.29134 7.0866,0 0,-44.29115 124.01575,-3.9e-4 0,44.29154 7.08661,0 0,-44.29134 124.01576,0 0,44.29134 7.08662,0 0,-44.29134 124.01577,0 0,44.29134 7.0866,0 0,-44.29134 124.0157,0 0,44.29134 7.0866,0 0,-44.29134 124.01578,0 0,44.29134 7.0866,0 0,-44.29134 124.0157,0 0,44.29134 7.0866,0 0,-44.29134 124.0158,0 0,44.29134 7.0866,0 0,-44.29134 c 0,0 -15.5533,0 124.0157,0 l 0,44.29134 7.0867,0 0,-44.29134 124.0157,0 0,44.29134 7.0866,0 0,-44.29134 232.0866,0 0,88.58267 -1782.283381,0 z"
       id="path3131-1-6-8-5-1"
       inkscape:connector-curvature="0"
       sodipodi:nodetypes="ccccccccccccccccccccccccccccccccccccccccccccccccc" />
    <path
       style="fill:none;stroke:#000000;stroke-width:1px;stroke-linecap:butt;stroke-linejoin:miter;stroke-opacity:1"
       d="m 40.286873,825.21379 232.086627,0 0,44.29133 7.08661,0 0,-44.29133 124.01575,0 0,44.29133 7.08661,0 0,-44.29114 124.01575,-3.9e-4 0,44.29153 7.08661,0 0,-44.29133 124.01575,0 0,44.29133 7.08662,0 0,-44.29133 124.01577,0 0,44.29133 7.0866,0 0,-44.29133 124.0157,0 0,44.29133 7.0866,0 0,-44.29133 124.01583,0 0,44.29133 7.0866,0 0,-44.29133 124.0157,0 0,44.29133 7.0866,0 0,-44.29133 124.0158,0 0,44.29133 7.0866,0 0,-44.29133 c 0,0 -15.5533,0 124.0157,0 l 0,44.29133 7.0867,0 0,-44.29133 124.0157,0 0,44.29133 7.0866,0 0,-44.29133 232.0865,0 0,88.58266 -1782.283327,0 z"
       id="path3131-1-6-8-5-1-8"
       inkscape:connector-curvature="0"
       sodipodi:nodetypes="ccccccccccccccccccccccccccccccccccccccccccccccccc" />
    <path
       style="fill:none;stroke:#000000;stroke-width:1px;stroke-linecap:butt;stroke-linejoin:miter;stroke-opacity:1"
       d="m 37.429727,719.4995 232.086633,0 0,44.29134 7.08661,0 0,-44.29134 124.01575,0 0,44.29134 7.08661,0 0,-44.29115 124.01575,-3.9e-4 0,44.29154 7.08661,0 0,-44.29134 124.01575,0 0,44.29134 7.08662,0 0,-44.29134 124.01577,0 0,44.29134 7.0866,0 0,-44.29134 124.01573,0 0,44.29134 7.0866,0 0,-44.29134 124.01584,0 0,44.29134 7.0866,0 0,-44.29134 124.0157,0 0,44.29134 7.0866,0 0,-44.29134 124.0158,0 0,44.29134 7.0866,0 0,-44.29134 c 0,0 -15.5533,0 124.0157,0 l 0,44.29134 7.0867,0 0,-44.29134 124.0157,0 0,44.29134 7.0866,0 0,-44.29134 232.0866,0 0,88.58267 -1782.283473,0 z"
       id="path3131-1-6-8-5-1-9"
       inkscape:connector-curvature="0"
       sodipodi:nodetypes="ccccccccccccccccccccccccccccccccccccccccccccccccc" />
    <path
       style="fill:none;stroke:#000000;stroke-width:1px;stroke-linecap:butt;stroke-linejoin:miter;stroke-opacity:1"
       d="m 37.429733,613.78522 232.086627,0 0,44.29133 7.08661,0 0,-44.29133 124.01575,0 0,44.29133 7.08661,0 0,-44.29114 124.01575,-3.9e-4 0,44.29153 7.08661,0 0,-44.29133 124.01575,0 0,44.29133 7.08662,0 0,-44.29133 124.01577,0 0,44.29133 7.0866,0 0,-44.29133 124.01571,0 0,44.29133 7.0866,0 0,-44.29133 124.01576,0 0,44.29133 7.0866,0 0,-44.29133 124.0157,0 0,44.29133 7.0866,0 0,-44.29133 124.0158,0 0,44.29133 7.0866,0 0,-44.29133 c 0,0 -15.5533,0 124.0157,0 l 0,44.29133 7.0867,0 0,-44.29133 124.0157,0 0,44.29133 7.0866,0 0,-44.29133 232.0866,0 0,88.58266 -1782.283367,0 z"
       id="path3131-1-6-8-5-1-2"
       inkscape:connector-curvature="0"
       sodipodi:nodetypes="ccccccccccccccccccccccccccccccccccccccccccccccccc" />
    <path
       style="fill:none;stroke:#000000;stroke-width:1px;stroke-linecap:butt;stroke-linejoin:miter;stroke-opacity:1"
       d="m 34.572586,510.92807 232.086634,0 0,44.29134 7.08661,0 0,-44.29134 124.01575,0 0,44.29134 7.08661,0 0,-44.29115 124.01575,-3.9e-4 0,44.29154 7.08661,0 0,-44.29134 124.01575,0 0,44.29134 7.08662,0 0,-44.29134 124.01577,0 0,44.29134 7.0866,0 0,-44.29134 124.0157,0 0,44.29134 7.0866,0 0,-44.29134 124.01581,0 0,44.29134 7.0866,0 0,-44.29134 124.0157,0 0,44.29134 7.0866,0 0,-44.29134 124.0158,0 0,44.29134 7.0866,0 0,-44.29134 c 0,0 -15.5533,0 124.0157,0 l 0,44.29134 7.0867,0 0,-44.29134 124.0157,0 0,44.29134 7.0866,0 0,-44.29134 232.0866,0 0,88.58267 -1782.283414,0 z"
       id="path3131-1-6-8-5-1-7"
       inkscape:connector-curvature="0"
       sodipodi:nodetypes="ccccccccccccccccccccccccccccccccccccccccccccccccc" />
    <path
       style="fill:none;stroke:#000000;stroke-width:1px;stroke-linecap:butt;stroke-linejoin:miter;stroke-opacity:1"
       d="m 34.572587,402.35665 232.086633,0 0,44.29133 7.08661,0 0,-44.29133 124.01575,0 0,44.29133 7.08661,0 0,-44.29114 124.01575,-3.9e-4 0,44.29153 7.08661,0 0,-44.29133 124.01575,0 0,44.29133 7.08662,0 0,-44.29133 124.01577,0 0,44.29133 7.0866,0 0,-44.29133 124.01567,0 0,44.29133 7.0866,0 0,-44.29133 124.01584,0 0,44.29133 7.0866,0 0,-44.29133 124.0157,0 0,44.29133 7.0866,0 0,-44.29133 124.0158,0 0,44.29133 7.0866,0 0,-44.29133 c 0,0 -15.5533,0 124.0157,0 l 0,44.29133 7.0867,0 0,-44.29133 124.0157,0 0,44.29133 7.0866,0 0,-44.29133 232.0866,0 0,88.58266 -1782.283413,0 z"
       id="path3131-1-6-8-5-1-95"
       inkscape:connector-curvature="0"
       sodipodi:nodetypes="ccccccccccccccccccccccccccccccccccccccccccccccccc" />
    <path
       style="fill:none;stroke:#000000;stroke-width:1px;stroke-linecap:butt;stroke-linejoin:miter;stroke-opacity:1"
       d="m 34.57259,290.92808 232.08663,0 0,44.29133 7.08661,0 0,-44.29133 124.01575,0 0,44.29133 7.08661,0 0,-44.29114 124.01575,-3.9e-4 0,44.29153 7.08661,0 0,-44.29133 124.01575,0 0,44.29133 7.08662,0 0,-44.29133 124.01577,0 0,44.29133 7.0866,0 0,-44.29133 124.01571,0 0,44.29133 7.0866,0 0,-44.29133 124.0158,0 0,44.29133 7.0866,0 0,-44.29133 124.0157,0 0,44.29133 7.0866,0 0,-44.29133 124.0158,0 0,44.29133 7.0866,0 0,-44.29133 c 0,0 -15.5533,0 124.0157,0 l 0,44.29133 7.0867,0 0,-44.29133 124.0157,0 0,44.29133 7.0866,0 0,-44.29133 232.0866,0 0,88.58266 -1782.28341,0 z"
       id="path3131-1-6-8-5-1-4"
       inkscape:connector-curvature="0"
       sodipodi:nodetypes="ccccccccccccccccccccccccccccccccccccccccccccccccc" />
    <text
       xml:space="preserve"
       style="font-size:28px;font-style:normal;font-variant:normal;font-weight:normal;font-stretch:normal;line-height:125%;letter-spacing:0px;word-spacing:0px;fill:#000000;fill-opacity:1;stroke:none;font-family:Arial;-inkscape-font-specification:Sans"
       x="1860"
       y="888.12146"
       id="text3502"
       sodipodi:linespacing="125%"
       transform="translate(0,95.669295)"><tspan
         sodipodi:role="line"
         id="tspan3504"
         x="1860"
         y="888.12146">V6</tspan></text>
    <text
       xml:space="preserve"
       style="font-size:28px;font-style:normal;font-variant:normal;font-weight:normal;font-stretch:normal;line-height:125%;letter-spacing:0px;word-spacing:0px;fill:#000000;fill-opacity:1;stroke:none;font-family:Arial;-inkscape-font-specification:Sans"
       x="1857.1429"
       y="785.26428"
       id="text3506"
       sodipodi:linespacing="125%"
       transform="translate(0,95.669295)"><tspan
         sodipodi:role="line"
         id="tspan3508"
         x="1857.1429"
         y="785.26428">V7</tspan></text>
    <text
       xml:space="preserve"
       style="font-size:28px;font-style:normal;font-variant:normal;font-weight:normal;font-stretch:normal;line-height:125%;letter-spacing:0px;word-spacing:0px;fill:#000000;fill-opacity:1;stroke:none;font-family:Arial;-inkscape-font-specification:Sans"
       x="1860"
       y="688.12146"
       id="text3510"
       sodipodi:linespacing="125%"
       transform="translate(0,95.669295)"><tspan
         sodipodi:role="line"
         id="tspan3512"
         x="1860"
         y="688.12146">V8</tspan></text>
    <text
       xml:space="preserve"
       style="font-size:28px;font-style:normal;font-variant:normal;font-weight:normal;font-stretch:normal;line-height:125%;letter-spacing:0px;word-spacing:0px;fill:#000000;fill-opacity:1;stroke:none;font-family:Arial;-inkscape-font-specification:Sans"
       x="1854.2856"
       y="582.40717"
       id="text3514"
       sodipodi:linespacing="125%"
       transform="translate(0,95.669295)"><tspan
         sodipodi:role="line"
         id="tspan3516"
         x="1854.2856"
         y="582.40717">V9</tspan></text>
    <text
       xml:space="preserve"
       style="font-size:28px;font-style:normal;font-variant:normal;font-weight:normal;font-stretch:normal;line-height:125%;letter-spacing:0px;word-spacing:0px;fill:#000000;fill-opacity:1;stroke:none;font-family:Arial;-inkscape-font-specification:Sans"
       x="1860"
       y="473.83572"
       id="text3518"
       sodipodi:linespacing="125%"
       transform="translate(0,95.669295)"><tspan
         sodipodi:role="line"
         id="tspan3520"
         x="1860"
         y="473.83572">V10</tspan></text>
    <text
       xml:space="preserve"
       style="font-size:28px;font-style:normal;font-variant:normal;font-weight:normal;font-stretch:normal;line-height:125%;letter-spacing:0px;word-spacing:0px;fill:#000000;fill-opacity:1;stroke:none;font-family:Arial;-inkscape-font-specification:Sans"
       x="1851.4286"
       y="379.55002"
       id="text3522"
       sodipodi:linespacing="125%"
       transform="translate(0,95.669295)"><tspan
         sodipodi:role="line"
         id="tspan3524"
         x="1851.4286"
         y="379.55002">V11</tspan></text>
    <text
       xml:space="preserve"
       style="font-size:28px;font-style:normal;font-variant:normal;font-weight:normal;font-stretch:normal;line-height:125%;letter-spacing:0px;word-spacing:0px;fill:#000000;fill-opacity:1;stroke:none;font-family:Arial;-inkscape-font-specification:Sans"
       x="1862.8571"
       y="259.55002"
       id="text3526"
       sodipodi:linespacing="125%"
       transform="translate(0,95.669295)"><tspan
         sodipodi:role="line"
         id="tspan3528"
         x="1862.8571"
         y="259.55002">V12</tspan></text>
  </g>
</svg>
